<svg width="21" height="9" viewBox="0 0 21 9" fill="none" xmlns="http://www.w3.org/2000/svg">
<path d="M18.1483 8.50076C17.6964 8.50015 18.1483 8.4434 18.1964 8.50015C18.1964 8.30815 17.5494 8.64615 17.6964 8.50015L17.6362 8.50076L1.44626 8.50076C1.03226 8.50076 0.696262 8.16476 0.696262 7.75076C0.696262 7.33676 1.03226 7.00076 1.44626 7.00076L17.6352 7.00076L11.9153 1.28079C11.6223 0.987785 11.6223 0.51275 11.9153 0.21975C12.2083 -0.07325 12.6833 -0.07325 12.9763 0.21975L19.9763 7.21975C20.2693 7.51275 20.2693 7.98779 19.9763 8.28079L18.6964 8.50076C18.0931 8.4399 18.6964 8.50076 18.1483 8.50076Z" fill="#758FB4"/>
</svg>
