<svg width="20" height="10" viewBox="0 0 20 10" fill="none" xmlns="http://www.w3.org/2000/svg">
<path d="M2.04778 0.999976C2.49959 1.00058 2.04778 1.05733 1.99962 1.00058C1.99962 1.19258 2.6466 0.85458 2.49959 1.00058L2.55984 0.999976L18.7498 0.999976C19.1638 0.999976 19.4998 1.33598 19.4998 1.74998C19.4998 2.16398 19.1638 2.49998 18.7498 2.49998L2.56082 2.49998L8.28078 8.21995C8.57378 8.51295 8.57378 8.98798 8.28078 9.28098C7.98778 9.57398 7.51275 9.57398 7.21975 9.28098L0.21975 2.28098C-0.07325 1.98798 -0.07325 1.51295 0.21975 1.21995L1.49962 0.999976C2.10294 1.06083 1.49962 0.999976 2.04778 0.999976Z" fill="#006AFB"/>
</svg>
