<svg width="15" height="14" viewBox="0 0 15 14" fill="none" xmlns="http://www.w3.org/2000/svg">
<path d="M11.3462 0H3.65385C1.63923 0 0 1.61265 0 3.59459V13.4324C0 13.6617 0.140779 13.8691 0.356164 13.9569C0.427702 13.9864 0.502308 14 0.576923 14C0.726923 14 0.874614 13.9425 0.984614 13.8335L2.84154 12.0067C3.02308 11.8281 3.26462 11.7297 3.52154 11.7297H11.3462C13.3608 11.7297 15 10.1171 15 8.13514V3.59459C15 1.61265 13.3608 0 11.3462 0ZM13.8462 8.13514C13.8462 9.49124 12.7246 10.5946 11.3462 10.5946H3.52232C2.95693 10.5946 2.42616 10.8111 2.02616 11.2046L1.15385 12.0627V3.59459C1.15385 2.23849 2.27538 1.13514 3.65385 1.13514H11.3462C12.7246 1.13514 13.8462 2.23849 13.8462 3.59459V8.13514ZM5.19231 5.86487C5.19231 6.28259 4.84769 6.62162 4.42308 6.62162C3.99846 6.62162 3.65385 6.28259 3.65385 5.86487C3.65385 5.44714 3.99846 5.10811 4.42308 5.10811C4.84769 5.10811 5.19231 5.44714 5.19231 5.86487ZM8.26923 5.86487C8.26923 6.28259 7.92462 6.62162 7.5 6.62162C7.07538 6.62162 6.73077 6.28259 6.73077 5.86487C6.73077 5.44714 7.07538 5.10811 7.5 5.10811C7.92462 5.10811 8.26923 5.44714 8.26923 5.86487ZM11.3462 5.86487C11.3462 6.28259 11.0015 6.62162 10.5769 6.62162C10.1523 6.62162 9.80769 6.28259 9.80769 5.86487C9.80769 5.44714 10.1523 5.10811 10.5769 5.10811C11.0015 5.10811 11.3462 5.44714 11.3462 5.86487Z" fill="#006AFB"/>
</svg>
