<?xml version="1.0" standalone="yes"?>
<svg xmlns="http://www.w3.org/2000/svg" width="87" height="89">
<path style="fill:#010101; stroke:none;" d="M0 0L0 89L87 89L87 0L0 0z"/>
<path style="fill:#f3f3f3; stroke:none;" d="M36 5L36 6L39 6L36 5M46 5L46 6L61 14C57.3161 9.08696 52.1707 5.63721 46 5M34 6L35 7L34 6z"/>
<path style="fill:#dbdbdc; stroke:none;" d="M35 6L36 7L35 6M48.6667 6.33334L49.3333 6.66666L48.6667 6.33334z"/>
<path style="fill:#f3f3f3; stroke:none;" d="M32 7L30 9L30 10L32 7z"/>
<path style="fill:#dbdbdc; stroke:none;" d="M33 7L34 8L33 7M51 7L52 8L51 7M31 8L32 9L31 8M52 8L53 9L52 8M54 8L55 9L54 8M17 22L18 22L31 11C25.6952 9.87739 19.1121 17.6387 17 22z"/>
<path style="fill:#b2b3b5; stroke:none;" d="M42 10L43 11L42 10z"/>
<path style="fill:#dbdbdc; stroke:none;" d="M55 10L56 11L55 10z"/>
<path style="fill:#b2b3b5; stroke:none;" d="M39 11L40 12L39 11z"/>
<path style="fill:#c6c7c8; stroke:none;" d="M40 11L40 12L45 12L40 11z"/>
<path style="fill:#dbdbdc; stroke:none;" d="M56 11L59 13L56 11z"/>
<path style="fill:#c6c7c8; stroke:none;" d="M35 15L39 13L35 15z"/>
<path style="fill:#dbdbdc; stroke:none;" d="M25 24C33.6154 18.2593 39.0316 11.586 50 15C41.6256 7.15311 30.1878 16.8726 25 24z"/>
<path style="fill:#c6c7c8; stroke:none;" d="M47.6667 12.3333L48.3333 12.6667L47.6667 12.3333z"/>
<path style="fill:#f3f3f3; stroke:none;" d="M25 13L26 14L25 13z"/>
<path style="fill:#b2b3b5; stroke:none;" d="M35 13L36 14L35 13z"/>
<path style="fill:#f3f3f3; stroke:none;" d="M40 13L40 14L47 14L40 13z"/>
<path style="fill:#c6c7c8; stroke:none;" d="M49 13L50 14L49 13z"/>
<path style="fill:#b2b3b5; stroke:none;" d="M34 14L35 15L34 14z"/>
<path style="fill:#c6c7c8; stroke:none;" d="M50 14L51 15L50 14z"/>
<path style="fill:#b2b3b5; stroke:none;" d="M51 14L52 15L51 14z"/>
<path style="fill:#dbdbdc; stroke:none;" d="M60 14L60 15L62 17L63 17L60 14z"/>
<path style="fill:#c6c7c8; stroke:none;" d="M24 15L25 16L24 15M33 15L34 16L33 15z"/>
<path style="fill:#f3f3f3; stroke:none;" d="M50 15L51 16L50 15z"/>
<path style="fill:#dbdbdc; stroke:none;" d="M51 15L52 16L51 15z"/>
<path style="fill:#c6c7c8; stroke:none;" d="M52 15L53 16L52 15M61 15L62 16L61 15z"/>
<path style="fill:#f3f3f3; stroke:none;" d="M63 15L70 22L63 15z"/>
<path style="fill:#c6c7c8; stroke:none;" d="M23 16L24 17L23 16M31 16L32 17L31 16z"/>
<path style="fill:#f3f3f3; stroke:none;" d="M34 16L35 17L34 16M52 16L54 18L52 16z"/>
<path style="fill:#dbdbdc; stroke:none;" d="M53 16L54 17L53 16z"/>
<path style="fill:#f3f3f3; stroke:none;" d="M20 17L21 18L20 17z"/>
<path style="fill:#c6c7c8; stroke:none;" d="M22 17L23 18L22 17M30 17L29 19L31 19L30 17z"/>
<path style="fill:#f3f3f3; stroke:none;" d="M32.6667 17.3333L33.3333 17.6667L32.6667 17.3333z"/>
<path style="fill:#c6c7c8; stroke:none;" d="M54 17L56 19L54 17z"/>
<path style="fill:#f3f3f3; stroke:none;" d="M18 18L19 19L18 18z"/>
<path style="fill:#dbdbdc; stroke:none;" d="M54 18L55 19L54 18z"/>
<path style="fill:#b2b3b5; stroke:none;" d="M56 18L57 19L56 18z"/>
<path style="fill:#dbdbdc; stroke:none;" d="M65 18L66 19L65 18z"/>
<path style="fill:#f3f3f3; stroke:none;" d="M17 19L18 20L17 19z"/>
<path style="fill:#c6c7c8; stroke:none;" d="M19 19L20 20L19 19M28 19L29 20L28 19z"/>
<path style="fill:#dbdbdc; stroke:none;" d="M55 19L55 20L65 26L65 25L55 19z"/>
<path style="fill:#c6c7c8; stroke:none;" d="M57 19L58 20L57 19z"/>
<path style="fill:#dbdbdc; stroke:none;" d="M66 19L67 20L66 19z"/>
<path style="fill:#c6c7c8; stroke:none;" d="M18 20L19 21L18 20M27 20L28 21L27 20z"/>
<path style="fill:#f3f3f3; stroke:none;" d="M29 20L30 21L29 20M56 20L57 21L56 20z"/>
<path style="fill:#c6c7c8; stroke:none;" d="M58 20L59 21L58 20z"/>
<path style="fill:#dbdbdc; stroke:none;" d="M67 20L68 21L67 20z"/>
<path style="fill:#f3f3f3; stroke:none;" d="M14 23L17 22L14 23z"/>
<path style="fill:#c6c7c8; stroke:none;" d="M26 21L27 22L26 21M59 21L60 22L59 21z"/>
<path style="fill:#dbdbdc; stroke:none;" d="M15 22L9 29L15 22z"/>
<path style="fill:#c6c7c8; stroke:none;" d="M16 22L17 23L16 22M25 22L26 23L25 22z"/>
<path style="fill:#f3f3f3; stroke:none;" d="M27 22L28 23L27 22z"/>
<path style="fill:#c6c7c8; stroke:none;" d="M60.6667 22.3333L61.3333 22.6667L60.6667 22.3333z"/>
<path style="fill:#dbdbdc; stroke:none;" d="M70 22L73 25L70 22z"/>
<path style="fill:#f3f3f3; stroke:none;" d="M71 22L72 23L71 22M12 23L11 25L13 25L12 23z"/>
<path style="fill:#c6c7c8; stroke:none;" d="M15 23L16 24L15 23M19 28L25 24L19 28z"/>
<path style="fill:#f3f3f3; stroke:none;" d="M26 23L27 24L26 23z"/>
<path style="fill:#c6c7c8; stroke:none;" d="M62 23L63 24L62 23M14 24L15 25L14 24z"/>
<path style="fill:#dbdbdc; stroke:none;" d="M23 24L22 27L23 24z"/>
<path style="fill:#f3f3f3; stroke:none;" d="M24 24L25 25L24 24M73 24L73 26L75 26L73 24M10 25L11 26L10 25z"/>
<path style="fill:#c6c7c8; stroke:none;" d="M13 25L14 26L13 25z"/>
<path style="fill:#f3f3f3; stroke:none;" d="M63 25L64 26L63 25M9.33333 26.6667L9.66667 27.3333L9.33333 26.6667z"/>
<path style="fill:#dbdbdc; stroke:none;" d="M65 26L66 27L65 26M75 26L76 27L75 26M20.6667 27.3333L21.3333 27.6667L20.6667 27.3333z"/>
<path style="fill:#c6c7c8; stroke:none;" d="M66 27L67 28L66 27z"/>
<path style="fill:#dbdbdc; stroke:none;" d="M67 27L68 28L67 27z"/>
<path style="fill:#f3f3f3; stroke:none;" d="M76 27L77 28L76 27M8 28L6 31L8 28z"/>
<path style="fill:#dbdbdc; stroke:none;" d="M11 38L20 29C15.6151 28.9033 12.8894 34.4697 11 38z"/>
<path style="fill:#f3f3f3; stroke:none;" d="M68 28L69 29L68 28M18 29L19 30L18 29z"/>
<path style="fill:#dbdbdc; stroke:none;" d="M69 29L70 30L69 29M7 30L8 31L7 30M70 30L71 31L70 30M6.33333 31.6667L6.66667 32.3333L6.33333 31.6667z"/>
<path style="fill:#c6c7c8; stroke:none;" d="M14 31L11 37L12 37L14 31z"/>
<path style="fill:#f3f3f3; stroke:none;" d="M16 31L17 32L16 31z"/>
<path style="fill:#c6c7c8; stroke:none;" d="M71 31L72 32L71 31z"/>
<path style="fill:#dbdbdc; stroke:none;" d="M72 31L73 34L74 34L72 31z"/>
<path style="fill:#b2b3b5; stroke:none;" d="M13 32L14 33L13 32z"/>
<path style="fill:#f3f3f3; stroke:none;" d="M72 32L73 33L72 32M79 32L81 39L79 32z"/>
<path style="fill:#dbdbdc; stroke:none;" d="M5.33333 33.6667L5.66667 34.3333L5.33333 33.6667z"/>
<path style="fill:#b2b3b5; stroke:none;" d="M12 33L13 34L12 33M11 34L12 35L11 34z"/>
<path style="fill:#f3f3f3; stroke:none;" d="M5 35L5 39L6 39L5 35z"/>
<path style="fill:#c6c7c8; stroke:none;" d="M11.3333 38.6667L11.6667 39.3333L11.3333 38.6667z"/>
<path style="fill:#f3f3f3; stroke:none;" d="M12 38L13 39L12 38z"/>
<path style="fill:#dbdbdc; stroke:none;" d="M5 39L5 42L6 42L5 39M79 39L79 65L80 65L81 39L79 39M11 40L12 41L11 40z"/>
<path style="fill:#f3f3f3; stroke:none;" d="M80 40L80 45L81 45L80 40z"/>
<path style="fill:#c6c7c8; stroke:none;" d="M11.3333 41.6667L11.6667 42.3333L11.3333 41.6667z"/>
<path style="fill:#f3f3f3; stroke:none;" d="M5 42L5 47L6 47L5 42z"/>
<path style="fill:#dbdbdc; stroke:none;" d="M11 43L12 44L11 43z"/>
<path style="fill:#c6c7c8; stroke:none;" d="M11 44L11 47L12 47L11 44z"/>
<path style="fill:#f3f3f3; stroke:none;" d="M39.6667 46.3333L40.3333 46.6667L39.6667 46.3333z"/>
<path style="fill:#dbdbdc; stroke:none;" d="M41 46L41 47L48 49L41 46M11 47L12 48L11 47z"/>
<path style="fill:#f3f3f3; stroke:none;" d="M37 47L36 49L37 47z"/>
<path style="fill:#dbdbdc; stroke:none;" d="M37 49L40 47L37 49z"/>
<path style="fill:#c6c7c8; stroke:none;" d="M40 47L40 48L45 48L40 47z"/>
<path style="fill:#f3f3f3; stroke:none;" d="M47 47L48 48L47 47z"/>
<path style="fill:#c6c7c8; stroke:none;" d="M11 48L12 49L11 48z"/>
<path style="fill:#f3f3f3; stroke:none;" d="M48 48L49 49L48 48z"/>
<path style="fill:#dbdbdc; stroke:none;" d="M49 48L50 49L49 48M11 49L11 52L12 52L11 49z"/>
<path style="fill:#f3f3f3; stroke:none;" d="M34.6667 49.3333L35.3333 49.6667L34.6667 49.3333M50.6667 49.3333L51.3333 49.6667L50.6667 49.3333z"/>
<path style="fill:#dbdbdc; stroke:none;" d="M33 50L34 51L33 50M52.6667 50.3333L53.3333 50.6667L52.6667 50.3333z"/>
<path style="fill:#f3f3f3; stroke:none;" d="M31 51L32 52L31 51z"/>
<path style="fill:#dbdbdc; stroke:none;" d="M32 51L33 52L32 51M54 51L55 52L54 51z"/>
<path style="fill:#c6c7c8; stroke:none;" d="M11 52L12 53L11 52z"/>
<path style="fill:#dbdbdc; stroke:none;" d="M31 52L30 55L31 52M55 52L56 53L55 52M11.3333 53.6667L11.6667 54.3333L11.3333 53.6667z"/>
<path style="fill:#f3f3f3; stroke:none;" d="M30 53L31 54L30 53z"/>
<path style="fill:#b2b3b5; stroke:none;" d="M39 54L39 55L44 54L39 54z"/>
<path style="fill:#c6c7c8; stroke:none;" d="M43.6667 54.3333L44.3333 54.6667L43.6667 54.3333z"/>
<path style="fill:#b2b3b5; stroke:none;" d="M45.6667 54.3333L46.3333 54.6667L45.6667 54.3333z"/>
<path style="fill:#f3f3f3; stroke:none;" d="M56 54L57 58L58 58L56 54z"/>
<path style="fill:#c6c7c8; stroke:none;" d="M11 55L12 56L11 55z"/>
<path style="fill:#f3f3f3; stroke:none;" d="M29 55L30 56L29 55z"/>
<path style="fill:#c6c7c8; stroke:none;" d="M37 55L37 56L40 56L37 55z"/>
<path style="fill:#dbdbdc; stroke:none;" d="M40 55L40 56L46 56L40 55z"/>
<path style="fill:#c6c7c8; stroke:none;" d="M46.6667 55.3333L47.3333 55.6667L46.6667 55.3333z"/>
<path style="fill:#dbdbdc; stroke:none;" d="M11 56L11 61L12 61L11 56M29 56C28.6121 60.9157 25.8484 69.3722 30 73L29 56z"/>
<path style="fill:#c6c7c8; stroke:none;" d="M35.3333 56.6667L35.6667 57.3333L35.3333 56.6667z"/>
<path style="fill:#dbdbdc; stroke:none;" d="M36.6667 56.3333L37.3333 56.6667L36.6667 56.3333z"/>
<path style="fill:#f3f3f3; stroke:none;" d="M38.6667 56.3333L39.3333 56.6667L38.6667 56.3333M47 56L48 57L47 56M36 57L36 60L37 60L36 57z"/>
<path style="fill:#dbdbdc; stroke:none;" d="M56 57L58 60L56 57M35 58L33 80C37.8446 76.5772 37.138 63.095 35 58z"/>
<path style="fill:#f3f3f3; stroke:none;" d="M28.3333 59.6667L28.6667 60.3333L28.3333 59.6667M5 60L5 65L6 65L5 60z"/>
<path style="fill:#dbdbdc; stroke:none;" d="M58 60L58 73L59 73L58 60z"/>
<path style="fill:#f3f3f3; stroke:none;" d="M80 60L80 63L81 63L80 60z"/>
<path style="fill:#c6c7c8; stroke:none;" d="M11 61L12 62L11 61M29 61L29 68L30 68L29 61z"/>
<path style="fill:#dbdbdc; stroke:none;" d="M11 62L11 65L12 65L11 62z"/>
<path style="fill:#f3f3f3; stroke:none;" d="M12 63L12 66L13 66L12 63M79 65L79 68L80 68L79 65M13 66L14 67L13 66z"/>
<path style="fill:#dbdbdc; stroke:none;" d="M6 67C8.72437 80.5026 21.0749 80 32 80L32 79C19.1019 79 14.1593 77.3425 6 67z"/>
<path style="fill:#f3f3f3; stroke:none;" d="M14 67L15 68L14 67z"/>
<path style="fill:#dbdbdc; stroke:none;" d="M78 67C74.9992 78.043 56.8205 85.2294 51 73L50 73C51.1976 88.8041 83.9007 77.6853 78 67z"/>
<path style="fill:#b2b3b5; stroke:none;" d="M77 68L78 69L77 68z"/>
<path style="fill:#c6c7c8; stroke:none;" d="M7 69L8 70L7 69M29.3333 69.6667L29.6667 70.3333L29.3333 69.6667M77 69L75 72L77 69z"/>
<path style="fill:#f3f3f3; stroke:none;" d="M6 70L7 71L6 70z"/>
<path style="fill:#c6c7c8; stroke:none;" d="M8 70L9 71L8 70M9 71L10 72L9 71M10 72C12.1558 76.2416 15.3083 78.3148 20 79L20 78L10 72M74 72L71 75L71 76L74 72z"/>
<path style="fill:#f3f3f3; stroke:none;" d="M77 72L78 73L77 72z"/>
<path style="fill:#b2b3b5; stroke:none;" d="M11 73L12 74L11 73M73 73L74 74L73 73M12 74L13 75L12 74M72 74L73 75L72 74M15 76L16 77L15 76M34 76L20 78L20 79C23.712 79 33.2 80.6477 34 76M69 76L67 77L67 78L69 76z"/>
<path style="fill:#c6c7c8; stroke:none;" d="M70.3333 76.6667L70.6667 77.3333L70.3333 76.6667z"/>
<path style="fill:#b2b3b5; stroke:none;" d="M16 77L16 78L19 78L16 77z"/>
<path style="fill:#c6c7c8; stroke:none;" d="M34 77L35 78L34 77M52 77L53 78L52 77z"/>
<path style="fill:#f3f3f3; stroke:none;" d="M72 77L73 78L72 77z"/>
<path style="fill:#c6c7c8; stroke:none;" d="M33 78L34 79L33 78z"/>
<path style="fill:#f3f3f3; stroke:none;" d="M35 78L36 79L35 78z"/>
<path style="fill:#c6c7c8; stroke:none;" d="M54 78L54 79L69 79L54 78M32 79L33 80L32 79z"/>
<path style="fill:#f3f3f3; stroke:none;" d="M53 79L54 80L53 79M69 79L70 80L69 79M31 80L32 81L31 80M56 80L56 81L59 81L56 80M60 80L60 81L66 81L60 80z"/>
</svg>
