<svg width="20" height="20" viewBox="0 0 20 20" fill="none" xmlns="http://www.w3.org/2000/svg">
<path d="M17.728 5.06202L12.728 1.04061C11.002 -0.34687 8.498 -0.34687 6.772 1.04061L1.772 5.06202C0.646003 5.96733 0 7.31478 0 8.75928V14.7534C0 17.3703 2.131 19.5 4.75 19.5H7.5V14.7534C7.5 13.5149 8.509 12.5066 9.75 12.5066C10.991 12.5066 12 13.5149 12 14.7534V19.5H14.75C17.369 19.5 19.5 17.3713 19.5 14.7534V8.75928C19.5 7.31478 18.854 5.96733 17.728 5.06202ZM18 14.7534C18 16.543 16.542 17.9995 14.75 17.9995H13.5V14.7534C13.5 12.6876 11.818 11.006 9.75 11.006C7.682 11.006 6 12.6876 6 14.7534V17.9995H4.75C2.958 17.9995 1.5 16.543 1.5 14.7534V8.75928C1.5 7.77194 1.941 6.85065 2.711 6.23143L7.711 2.21002C8.893 1.26069 10.607 1.26069 11.788 2.21002L16.788 6.23143C17.558 6.85065 17.999 7.77194 17.999 8.75928V14.7534H18Z" fill="#758FB4"/>
</svg>
