<svg width="14" height="16" viewBox="0 0 14 16" fill="none" xmlns="http://www.w3.org/2000/svg">
<path d="M10.7527 6.02504V3.89744C10.7527 1.74851 8.91957 0 6.66667 0C4.41376 0 2.58065 1.74851 2.58065 3.89744V6.02584C1.07183 6.59938 0 8 0 9.64103V12.1026C0 14.2515 1.83312 16 4.08602 16H9.24731C11.5002 16 13.3333 14.2515 13.3333 12.1026V9.64103C13.3333 8 12.2615 6.59858 10.7527 6.02504ZM3.87097 3.89744C3.87097 2.42708 5.12516 1.23077 6.66667 1.23077C8.20817 1.23077 9.46237 2.42708 9.46237 3.89744V5.76412C9.38925 5.76002 9.32129 5.74359 9.24731 5.74359H4.08602C4.01204 5.74359 3.94409 5.76084 3.87097 5.76412V3.89744ZM12.043 12.1026C12.043 13.5729 10.7888 14.7692 9.24731 14.7692H4.08602C2.54452 14.7692 1.29032 13.5729 1.29032 12.1026V9.64103C1.29032 8.17067 2.54452 6.97436 4.08602 6.97436H9.24731C10.7888 6.97436 12.043 8.17067 12.043 9.64103V12.1026ZM7.31183 10.4615V11.2821C7.31183 11.6217 7.02279 11.8974 6.66667 11.8974C6.31054 11.8974 6.0215 11.6217 6.0215 11.2821V10.4615C6.0215 10.1218 6.31054 9.84615 6.66667 9.84615C7.02279 9.84615 7.31183 10.1218 7.31183 10.4615Z" fill="#006AFB"/>
</svg>
