<svg width="14" height="14" viewBox="0 0 14 14" fill="none" xmlns="http://www.w3.org/2000/svg">
<path d="M13.9545 10.303C13.938 10.206 13.9179 10.1214 13.8971 10.046C13.7714 9.59723 13.3808 9.25541 12.9019 9.17642L9.79143 8.65877C9.33333 8.58194 8.87452 8.75927 8.59306 9.11972C8.55428 9.16926 8.51695 9.21949 8.48249 9.27047C8.43151 9.34515 8.33027 9.41482 8.22042 9.36671C6.60703 8.66521 5.33327 7.39141 4.63248 5.77803C4.58366 5.66674 4.65184 5.5691 4.72508 5.51955C4.79329 5.4736 4.85935 5.42409 4.92326 5.37239C5.27293 5.08949 5.44672 4.63713 5.37635 4.19124L4.89455 1.13608C4.8206 0.667929 4.49966 0.285198 4.05593 0.138723C3.95182 0.104258 3.83119 0.0726991 3.69118 0.0475685C2.78217 -0.114703 1.85232 0.142319 1.13789 0.755506C0.389 1.39885 -0.0260191 2.33376 0.00126554 3.31887C0.158511 9.15061 4.84859 13.8414 10.6803 13.9987C10.7098 13.9994 10.7392 14.0001 10.7687 14.0001C11.7143 14.0001 12.6082 13.5908 13.2322 12.8684C13.8504 12.1526 14.1139 11.217 13.9545 10.303ZM12.4158 12.1648C11.9843 12.6638 11.3567 12.9302 10.7083 12.923C5.44957 12.7809 1.21901 8.5496 1.07684 3.29013C1.05961 2.63027 1.33677 2.00418 1.83939 1.57265C2.21922 1.24667 2.67228 1.07577 3.14474 1.07577C3.26249 1.07577 3.3817 1.0865 3.5009 1.10733C3.58419 1.12241 3.65524 1.14041 3.71699 1.16123C3.77659 1.18062 3.82038 1.23589 3.83116 1.3041L4.31296 4.35926C4.32373 4.42604 4.2979 4.49354 4.24692 4.53447C4.20527 4.56822 4.16288 4.59978 4.11908 4.62922C3.59206 4.98751 3.39679 5.6366 3.64451 6.20742C4.45443 8.07139 5.92707 9.54406 7.79033 10.354C8.359 10.601 9.00952 10.4064 9.37212 9.87726C9.39366 9.84639 9.4159 9.81551 9.44031 9.78392C9.47908 9.73437 9.54661 9.71067 9.61482 9.72072L12.7252 10.2384C12.7913 10.2499 12.8466 10.29 12.8602 10.3367C12.8731 10.3812 12.8839 10.4308 12.894 10.4876C12.9974 11.0821 12.8229 11.6931 12.4158 12.1648Z" fill="#006AFB"/>
</svg>
