<svg width="16" height="14" viewBox="0 0 16 14" fill="none" xmlns="http://www.w3.org/2000/svg">
<path d="M5.12821 0C3.87036 0 2.82011 0.907879 2.54031 2.12121H0.615385C0.275692 2.12121 0 2.4063 0 2.75758C0 3.10885 0.275692 3.39394 0.615385 3.39394H2.54031C2.82011 4.60727 3.87036 5.51515 5.12821 5.51515C6.59856 5.51515 7.79487 4.27806 7.79487 2.75758C7.79487 1.23709 6.59856 0 5.12821 0ZM5.12821 4.24242C4.33641 4.24242 3.69231 3.57636 3.69231 2.75758C3.69231 1.93879 4.33641 1.27273 5.12821 1.27273C5.92 1.27273 6.5641 1.93879 6.5641 2.75758C6.5641 3.57636 5.92 4.24242 5.12821 4.24242ZM9.84615 2.75758C9.84615 2.4063 10.1218 2.12121 10.4615 2.12121H15.3846C15.7243 2.12121 16 2.4063 16 2.75758C16 3.10885 15.7243 3.39394 15.3846 3.39394H10.4615C10.1218 3.39394 9.84615 3.10885 9.84615 2.75758ZM15.3846 10.6061H13.4597C13.1799 9.39273 12.1296 8.48485 10.8718 8.48485C9.40144 8.48485 8.20513 9.72194 8.20513 11.2424C8.20513 12.7629 9.40144 14 10.8718 14C12.1296 14 13.1799 13.0921 13.4597 11.8788H15.3846C15.7243 11.8788 16 11.5937 16 11.2424C16 10.8912 15.7243 10.6061 15.3846 10.6061ZM10.8718 12.7273C10.08 12.7273 9.4359 12.0612 9.4359 11.2424C9.4359 10.4236 10.08 9.75758 10.8718 9.75758C11.6636 9.75758 12.3077 10.4236 12.3077 11.2424C12.3077 12.0612 11.6636 12.7273 10.8718 12.7273ZM6.15385 11.2424C6.15385 11.5937 5.87815 11.8788 5.53846 11.8788H0.615385C0.275692 11.8788 0 11.5937 0 11.2424C0 10.8912 0.275692 10.6061 0.615385 10.6061H5.53846C5.87815 10.6061 6.15385 10.8912 6.15385 11.2424Z" fill="#758FB4"/>
</svg>
