<?xml version="1.0" standalone="yes"?>
<svg xmlns="http://www.w3.org/2000/svg" width="98" height="89">
<path style="fill:#010101; stroke:none;" d="M0 0L0 89L98 89L98 0L0 0z"/>
<path style="fill:#f1f1f1; stroke:none;" d="M61 16L62 16L59 8L65 7C56.9245 3.87575 58.824 11.4437 61 16z"/>
<path style="fill:#dadbdb; stroke:none;" d="M64 7L64 8L91 35L92 35C88.9112 25.9043 72.415 11.0748 64 7z"/>
<path style="fill:#f1f1f1; stroke:none;" d="M66 7L67 8L66 7z"/>
<path style="fill:#dadbdb; stroke:none;" d="M59 8L59 11L60 11L59 8z"/>
<path style="fill:#c7c7c8; stroke:none;" d="M65 8L66 9L65 8z"/>
<path style="fill:#f1f1f1; stroke:none;" d="M68 10L69 11L68 10z"/>
<path style="fill:#dadbdb; stroke:none;" d="M58 11L59 12L58 11M60 11L61 12L60 11M59 12L60 13L59 12M61.3333 12.6667L61.6667 13.3333L61.3333 12.6667z"/>
<path style="fill:#c7c7c8; stroke:none;" d="M69 12L70 13L69 12M62 13L82 35C79.109 26.4961 69.2105 18.0792 62 13M70 13L71 14L70 13z"/>
<path style="fill:#f1f1f1; stroke:none;" d="M72 14L73 15L72 14z"/>
<path style="fill:#dadbdb; stroke:none;" d="M62 15L62 16L62 17L76 29C73.0101 23.3946 67.7719 17.6934 62 15z"/>
<path style="fill:#f1f1f1; stroke:none;" d="M74 15L75 16L74 15M63 16L63 18L65 18L63 16z"/>
<path style="fill:#c7c7c8; stroke:none;" d="M73 16L74 17L73 16z"/>
<path style="fill:#f1f1f1; stroke:none;" d="M75 16L76 17L75 16z"/>
<path style="fill:#c7c7c8; stroke:none;" d="M74 17L75 18L74 17z"/>
<path style="fill:#f1f1f1; stroke:none;" d="M76 17L77 18L76 17M65.3333 18.6667L65.6667 19.3333L65.3333 18.6667z"/>
<path style="fill:#c7c7c8; stroke:none;" d="M75 18L76 19L75 18z"/>
<path style="fill:#f1f1f1; stroke:none;" d="M77 18L78 19L77 18z"/>
<path style="fill:#c7c7c8; stroke:none;" d="M76 19L77 20L76 19z"/>
<path style="fill:#f1f1f1; stroke:none;" d="M78 19L79 20L78 19z"/>
<path style="fill:#c7c7c8; stroke:none;" d="M77 20L78 21L77 20z"/>
<path style="fill:#f1f1f1; stroke:none;" d="M79 20L80 21L79 20M67.6667 21.3333L68.3333 21.6667L67.6667 21.3333z"/>
<path style="fill:#c7c7c8; stroke:none;" d="M78 21L79 22L78 21z"/>
<path style="fill:#f1f1f1; stroke:none;" d="M80 21L81 22L80 21M69.3333 22.6667L69.6667 23.3333L69.3333 22.6667z"/>
<path style="fill:#c7c7c8; stroke:none;" d="M79 22L80 23L79 22z"/>
<path style="fill:#f1f1f1; stroke:none;" d="M81 22L82 23L81 22M82 23L83 24L82 23M70 24L71 25L70 24z"/>
<path style="fill:#c7c7c8; stroke:none;" d="M81 24L82 25L81 24z"/>
<path style="fill:#f1f1f1; stroke:none;" d="M71.6667 25.3333L72.3333 25.6667L71.6667 25.3333z"/>
<path style="fill:#c7c7c8; stroke:none;" d="M82 25L83 26L82 25z"/>
<path style="fill:#f1f1f1; stroke:none;" d="M73.3333 26.6667L73.6667 27.3333L73.3333 26.6667M84 26L85 27L84 26z"/>
<path style="fill:#c7c7c8; stroke:none;" d="M85 28L86 29L85 28z"/>
<path style="fill:#f1f1f1; stroke:none;" d="M75 29L75 30L76 35L77 35C77.7099 31.9424 77.6692 30.7316 75 29z"/>
<path style="fill:#dadbdb; stroke:none;" d="M77 29L78 30L77 29z"/>
<path style="fill:#c7c7c8; stroke:none;" d="M86 29L87 30L86 29z"/>
<path style="fill:#f1f1f1; stroke:none;" d="M88.3333 29.6667L88.6667 30.3333L88.3333 29.6667z"/>
<path style="fill:#dadbdb; stroke:none;" d="M78 30L77 35L81 35L78 30z"/>
<path style="fill:#f1f1f1; stroke:none;" d="M89.6667 31.3333L90.3333 31.6667L89.6667 31.3333z"/>
<path style="fill:#a5a6a8; stroke:none;" d="M81 32L82 33L81 32z"/>
<path style="fill:#f1f1f1; stroke:none;" d="M21 34L21 35L75 35L75 33C58.1285 33 37.3364 29.759 21 34z"/>
<path style="fill:#dadbdb; stroke:none;" d="M25.6667 33.3333L26.3333 33.6667L25.6667 33.3333M75.3333 33.6667L75.6667 34.3333L75.3333 33.6667z"/>
<path style="fill:#a5a6a8; stroke:none;" d="M82 33L82 35L84 35L82 33z"/>
<path style="fill:#c7c7c8; stroke:none;" d="M90 33L91 34L90 33z"/>
<path style="fill:#f1f1f1; stroke:none;" d="M92 33L90 41C92.5287 38.5245 93.3604 36.3707 92 33M18.6667 34.3333L19.3333 34.6667L18.6667 34.3333z"/>
<path style="fill:#dadbdb; stroke:none;" d="M20 34L21 35L20 34M54 34L55 35L54 34M56 34L57 35L56 34M60 34L60 35L68 35L60 34M70 34L71 35L70 34z"/>
<path style="fill:#c7c7c8; stroke:none;" d="M91 35L92 36L91 35z"/>
<path style="fill:#dadbdb; stroke:none;" d="M91 36C86.0616 41.9289 77.0755 40 70 40L17 40L17 41C34.9398 43.8553 56.5131 42.5171 74.7145 41.8364C79.0851 41.673 92.4706 42.9943 91 36z"/>
<path style="fill:#c7c7c8; stroke:none;" d="M90 37L91 38L90 37z"/>
<path style="fill:#f1f1f1; stroke:none;" d="M16 39L17 40L16 39M18 41L19 42L18 41z"/>
<path style="fill:#c7c7c8; stroke:none;" d="M21 41L22 42L21 41z"/>
<path style="fill:#f1f1f1; stroke:none;" d="M22 41L22 42L30 42L22 41M34 41L34 42L47 42L34 41M57 41L57 42L64 42L57 41M75 41L76 42L75 41M78.6667 41.3333L79.3333 41.6667L78.6667 41.3333M83 41L83 42L87 42L83 41M8 48C4.36513 51.2877 3.19103 54.3812 7 58L8 48z"/>
<path style="fill:#dadbdb; stroke:none;" d="M9 48C0.407548 60.7223 23.2242 72.5364 30 82L34 83C28.8005 75.6391 20.9414 69.8339 14.6003 63.3889C12.5938 61.3494 8.19472 58.125 8.33102 54.9298C8.62061 48.1409 20.7304 50 25 50C42.1151 50 64.8424 46.1112 81 52C77.447 46.9711 67.5598 49 62 49C45.2177 49 25.3426 51.8908 9 48z"/>
<path style="fill:#f1f1f1; stroke:none;" d="M10 48L10 49L79 49L57 48L10 48M79.6667 49.3333L80.3333 49.6667L79.6667 49.3333z"/>
<path style="fill:#c7c7c8; stroke:none;" d="M8 58L9 58C8.67138 49.0572 18.6285 51 25 51L78 51C72.7835 48.8111 65.6191 50 60 50L22 50C15.6848 50 6.33025 48.9679 8 58z"/>
<path style="fill:#f1f1f1; stroke:none;" d="M81 50L80 57L81 57L81 50z"/>
<path style="fill:#010101; stroke:none;" d="M15 56L65 56C67.3263 56 80.9281 57.444 80.0787 53.1698C79.3128 49.3154 66.8716 51 64 51L24 51C20.2951 51 12.5366 49.5551 9.76157 52.6034C4.70286 58.1602 24.3093 73.3754 28 76.9954C29.5804 78.5455 33.6232 83.5423 36.338 81.8241C39.2523 79.9796 34.1625 75.2373 32.9807 74C27.1278 67.8719 20.9922 61.9922 15 56z"/>
<path style="fill:#dadbdb; stroke:none;" d="M4 53L5 54L4 53z"/>
<path style="fill:#a5a6a8; stroke:none;" d="M15 56L16 58L17 58L18 56L15 56z"/>
<path style="fill:#c7c7c8; stroke:none;" d="M17 59C33.4313 52.0376 60.2145 57 78 57C66.0683 51.9933 44.9913 56 32 56C27.0957 56 19.9591 54.4357 17 59z"/>
<path style="fill:#dadbdb; stroke:none;" d="M18 58L22 63L19 58C38.2258 58 61.2905 61.4544 80 57L60 57L18 58z"/>
<path style="fill:#f1f1f1; stroke:none;" d="M78 57L79 58L78 57M19 60L32 59C28.3528 57.4696 21.7579 56.8439 19 60z"/>
<path style="fill:#c7c7c8; stroke:none;" d="M11 60L12 61L11 60z"/>
<path style="fill:#f1f1f1; stroke:none;" d="M20 60L21 61L20 60z"/>
<path style="fill:#c7c7c8; stroke:none;" d="M12 61L13 62L12 61z"/>
<path style="fill:#f1f1f1; stroke:none;" d="M21 61L22 62L21 61M11 62L12 63L11 62z"/>
<path style="fill:#c7c7c8; stroke:none;" d="M13 62L14 63L13 62z"/>
<path style="fill:#f1f1f1; stroke:none;" d="M22 62L38 80L39 80L22 62M12 63L13 64L12 63M13 64L14 65L13 64z"/>
<path style="fill:#c7c7c8; stroke:none;" d="M15 64L16 65L15 64z"/>
<path style="fill:#f1f1f1; stroke:none;" d="M14 65L15 66L14 65z"/>
<path style="fill:#c7c7c8; stroke:none;" d="M16 65L17 66L16 65z"/>
<path style="fill:#dadbdb; stroke:none;" d="M24 65L25 66L24 65z"/>
<path style="fill:#f1f1f1; stroke:none;" d="M15 66L16 67L15 66z"/>
<path style="fill:#c7c7c8; stroke:none;" d="M17 66L18 67L17 66z"/>
<path style="fill:#dadbdb; stroke:none;" d="M25 66L26 67L25 66z"/>
<path style="fill:#f1f1f1; stroke:none;" d="M16 67L17 68L16 67M17 68L18 69L17 68z"/>
<path style="fill:#c7c7c8; stroke:none;" d="M19 68L20 69L19 68M20 69L21 70L20 69z"/>
<path style="fill:#dadbdb; stroke:none;" d="M28 69L29 70L28 69z"/>
<path style="fill:#c7c7c8; stroke:none;" d="M21 70L22 71L21 70z"/>
<path style="fill:#dadbdb; stroke:none;" d="M29 70L30 71L29 70z"/>
<path style="fill:#f1f1f1; stroke:none;" d="M20 71L21 72L20 71z"/>
<path style="fill:#c7c7c8; stroke:none;" d="M22 71L23 72L22 71z"/>
<path style="fill:#f1f1f1; stroke:none;" d="M21 72L22 73L21 72z"/>
<path style="fill:#c7c7c8; stroke:none;" d="M23 72L24 73L23 72z"/>
<path style="fill:#f1f1f1; stroke:none;" d="M22 73L23 74L22 73z"/>
<path style="fill:#c7c7c8; stroke:none;" d="M24 73L25 74L24 73z"/>
<path style="fill:#dadbdb; stroke:none;" d="M32 73L33 74L32 73z"/>
<path style="fill:#f1f1f1; stroke:none;" d="M23 74L24 75L23 74z"/>
<path style="fill:#c7c7c8; stroke:none;" d="M25 74L26 75L25 74z"/>
<path style="fill:#dadbdb; stroke:none;" d="M33 74L34 75L33 74z"/>
<path style="fill:#f1f1f1; stroke:none;" d="M24 75L25 76L24 75M25 76L26 77L25 76M26 77L27 78L26 77z"/>
<path style="fill:#dadbdb; stroke:none;" d="M37 78L38 79L37 78z"/>
<path style="fill:#f1f1f1; stroke:none;" d="M28 79L29 80L28 79M29 80L30 81L29 80z"/>
<path style="fill:#dadbdb; stroke:none;" d="M38 80L39 81L38 80z"/>
<path style="fill:#f1f1f1; stroke:none;" d="M31.3333 81.6667L31.6667 82.3333L31.3333 81.6667M38 81L39 82L38 81M37 82L38 83L37 82M33 83L33 84L37 84L33 83z"/>
</svg>
